<svg id="visual" viewBox="0 0 900 600" width="900" height="600" xmlns="http://www.w3.org/2000/svg" xmlns:xlink="http://www.w3.org/1999/xlink" version="1.1"><rect x="0" y="0" width="900" height="600" fill="#001220"></rect><path d="M297 0L305.5 14.3C314 28.7 331 57.3 341.7 85.8C352.3 114.3 356.7 142.7 360.7 171.2C364.7 199.7 368.3 228.3 352.8 257C337.3 285.7 302.7 314.3 295.2 343C287.7 371.7 307.3 400.3 302.3 428.8C297.3 457.3 267.7 485.7 275.7 514.2C283.7 542.7 329.3 571.3 352.2 585.7L375 600L0 600L0 585.7C0 571.3 0 542.7 0 514.2C0 485.7 0 457.3 0 428.8C0 400.3 0 371.7 0 343C0 314.3 0 285.7 0 257C0 228.3 0 199.7 0 171.2C0 142.7 0 114.3 0 85.8C0 57.3 0 28.7 0 14.3L0 0Z" fill="#424be0"></path><path d="M276 0L264 14.3C252 28.7 228 57.3 217 85.8C206 114.3 208 142.7 216.5 171.2C225 199.7 240 228.3 244.5 257C249 285.7 243 314.3 251 343C259 371.7 281 400.3 274.3 428.8C267.7 457.3 232.3 485.7 215.8 514.2C199.3 542.7 201.7 571.3 202.8 585.7L204 600L0 600L0 585.7C0 571.3 0 542.7 0 514.2C0 485.7 0 457.3 0 428.8C0 400.3 0 371.7 0 343C0 314.3 0 285.7 0 257C0 228.3 0 199.7 0 171.2C0 142.7 0 114.3 0 85.8C0 57.3 0 28.7 0 14.3L0 0Z" fill="#4336b5"></path><path d="M201 0L206.5 14.3C212 28.7 223 57.3 228.2 85.8C233.3 114.3 232.7 142.7 233.7 171.2C234.7 199.7 237.3 228.3 236.2 257C235 285.7 230 314.3 219.5 343C209 371.7 193 400.3 178.2 428.8C163.3 457.3 149.7 485.7 153 514.2C156.3 542.7 176.7 571.3 186.8 585.7L197 600L0 600L0 585.7C0 571.3 0 542.7 0 514.2C0 485.7 0 457.3 0 428.8C0 400.3 0 371.7 0 343C0 314.3 0 285.7 0 257C0 228.3 0 199.7 0 171.2C0 142.7 0 114.3 0 85.8C0 57.3 0 28.7 0 14.3L0 0Z" fill="#3c228c"></path><path d="M140 0L140.8 14.3C141.7 28.7 143.3 57.3 144.2 85.8C145 114.3 145 142.7 143 171.2C141 199.7 137 228.3 138.8 257C140.7 285.7 148.3 314.3 149.5 343C150.7 371.7 145.3 400.3 135.7 428.8C126 457.3 112 485.7 118.2 514.2C124.3 542.7 150.7 571.3 163.8 585.7L177 600L0 600L0 585.7C0 571.3 0 542.7 0 514.2C0 485.7 0 457.3 0 428.8C0 400.3 0 371.7 0 343C0 314.3 0 285.7 0 257C0 228.3 0 199.7 0 171.2C0 142.7 0 114.3 0 85.8C0 57.3 0 28.7 0 14.3L0 0Z" fill="#311066"></path><path d="M65 0L65.7 14.3C66.3 28.7 67.7 57.3 68.8 85.8C70 114.3 71 142.7 75.2 171.2C79.3 199.7 86.7 228.3 90.8 257C95 285.7 96 314.3 94.8 343C93.7 371.7 90.3 400.3 90 428.8C89.7 457.3 92.3 485.7 96.2 514.2C100 542.7 105 571.3 107.5 585.7L110 600L0 600L0 585.7C0 571.3 0 542.7 0 514.2C0 485.7 0 457.3 0 428.8C0 400.3 0 371.7 0 343C0 314.3 0 285.7 0 257C0 228.3 0 199.7 0 171.2C0 142.7 0 114.3 0 85.8C0 57.3 0 28.7 0 14.3L0 0Z" fill="#220144"></path></svg>